<?xml version="1.0" encoding="UTF-8"?>
<svg id="Layer_2" data-name="Layer 2" xmlns="http://www.w3.org/2000/svg" viewBox="0 0 237.04 197.92">
  <defs>
    <style>
      .cls-1 {
        fill: #fff;
      }

      .cls-2 {
        stroke: #fff;
        stroke-miterlimit: 10;
        stroke-width: 11px;
      }

      .cls-2, .cls-3 {
        fill: #1a1a1a;
      }
    </style>
  </defs>
  <g id="Layer_1-2" data-name="Layer 1">
    <g>
      <g>
        <path class="cls-3" d="M159.06,192.42c-14.6,0-25.91-4.65-31.85-13.11-5.04-7.18-4.55-17.4,1.36-28.78,10.89-20.94,38.6-42.61,66.13-42.61,4.93,0,9.77.69,14.36,2.05l.26.08.25.1c.68.28,16.72,6.92,20.97,21.7,2.64,9.17.19,19.06-7.27,29.38-15.5,21.43-44.15,31.19-64.21,31.19Z"/>
        <path class="cls-1" d="M194.7,113.43c4.29,0,8.58.57,12.81,1.82,0,0,32.66,13.23,11.31,42.76-13.5,18.67-39.18,28.92-59.76,28.92-11.98,0-22.22-3.47-27.34-10.77-12.51-17.83,25.02-62.72,62.99-62.73M194.71,102.43h0c-17.98,0-33.25,8-42.9,14.71-12,8.35-22.25,19.6-28.11,30.86-6.91,13.29-7.26,25.53-.98,34.47,6.99,9.96,19.9,15.45,36.35,15.45,12.04,0,25.22-3,37.12-8.46,13.18-6.04,24.09-14.69,31.55-25.01,10.59-14.65,10.25-26.64,8.1-34.12-4.9-17.03-22.23-24.48-24.19-25.28l-.5-.2-.52-.15c-5.1-1.51-10.46-2.27-15.92-2.27h0Z"/>
      </g>
      <path class="cls-2" d="M48.48,162.81s36.56,2.12,35.51-53.03c-1.04-55.16-85.77-45.66-77.99,9.66,6.96,49.5,42.48,43.37,42.48,43.37Z"/>
      <path class="cls-2" d="M83.5,161.99s45.57-1.56,37.04-75.71C112,12.13,8.27,35.16,25.18,108.72c15.13,65.81,58.33,53.27,58.33,53.27Z"/>
      <path class="cls-2" d="M118.78,161.19s45.51,3.46,44.21-86.59C161.69-15.45,56.22.06,65.91,90.38c8.67,80.81,52.88,70.81,52.88,70.81Z"/>
      <path class="cls-2" d="M178.82,165.29s53.58,3.77,52.05-94.22c-1.53-97.99-125.71-81.12-114.3,17.17,10.21,87.94,62.25,77.05,62.25,77.05Z"/>
    </g>
  </g>
</svg>